<svg width="540" height="300" viewBox="0 0 540 300" fill="none" xmlns="http://www.w3.org/2000/svg">
<rect width="540" height="300" fill="#2D2B64"/>
<path d="M262.079 282.016H130.88C129.851 282.016 128.864 281.607 128.136 280.879C127.409 280.152 127 279.165 127 278.136V20.8456C127.009 19.8226 127.422 18.8445 128.148 18.1243C128.875 17.404 129.857 17 130.88 17H262.079C262.589 17 263.093 17.1003 263.564 17.2953C264.035 17.4903 264.463 17.7761 264.823 18.1363C265.183 18.4966 265.469 18.9242 265.664 19.3949C265.859 19.8656 265.959 20.3701 265.959 20.8796V278.136C265.959 278.645 265.859 279.15 265.664 279.621C265.469 280.091 265.183 280.519 264.823 280.879C264.463 281.24 264.035 281.525 263.564 281.72C263.093 281.915 262.589 282.016 262.079 282.016V282.016ZM130.88 17.1359C129.896 17.1377 128.954 17.5291 128.258 18.2244C127.563 18.9198 127.172 19.8623 127.17 20.8456V278.136C127.172 279.119 127.563 280.062 128.258 280.757C128.954 281.453 129.896 281.844 130.88 281.846H262.079C263.063 281.844 264.005 281.453 264.701 280.757C265.396 280.062 265.787 279.119 265.789 278.136V20.8456C265.787 19.8623 265.396 18.9198 264.701 18.2244C264.005 17.5291 263.063 17.1377 262.079 17.1359H130.88Z" fill="#EBEBEB"/>
<path d="M409.042 282.016H277.842C276.814 282.016 275.827 281.607 275.099 280.879C274.372 280.152 273.963 279.165 273.963 278.136V20.8456C273.972 19.8226 274.385 18.8445 275.111 18.1243C275.838 17.404 276.819 17 277.842 17H409.042C410.071 17 411.058 17.4087 411.786 18.1363C412.513 18.8639 412.922 19.8507 412.922 20.8796V278.136C412.922 278.645 412.822 279.15 412.627 279.621C412.432 280.091 412.146 280.519 411.786 280.879C411.425 281.24 410.998 281.525 410.527 281.72C410.056 281.915 409.552 282.016 409.042 282.016V282.016ZM277.842 17.1359C276.859 17.1377 275.917 17.5291 275.221 18.2244C274.526 18.9198 274.135 19.8623 274.133 20.8456V278.136C274.135 279.119 274.526 280.062 275.221 280.757C275.917 281.453 276.859 281.844 277.842 281.846H409.042C410.026 281.844 410.968 281.453 411.664 280.757C412.359 280.062 412.75 279.119 412.752 278.136V20.8456C412.75 19.8623 412.359 18.9198 411.664 18.2244C410.968 17.5291 410.026 17.1377 409.042 17.1359H277.842Z" fill="#EBEBEB"/>
<path d="M176.912 93.9468L178.012 96.1685L180.472 96.5287L178.692 98.2612L179.113 100.707L176.912 99.5522L174.717 100.707L175.138 98.2612L173.358 96.5287L175.818 96.1685L176.912 93.9468Z" fill="#EBEBEB"/>
<path d="M396.812 198.737L397.913 200.965L400.373 201.325L398.592 203.051L399.014 205.504L396.812 204.349L394.618 205.504L395.039 203.051L393.259 201.325L395.718 200.965L396.812 198.737Z" fill="#F5F5F5"/>
<path d="M353.26 263.345L354.361 265.566L356.814 265.927L355.034 267.659L355.455 270.105L353.26 268.95L351.066 270.105L351.48 267.659L349.707 265.927L352.16 265.566L353.26 263.345Z" fill="#F5F5F5"/>
<path d="M253.614 54.471L254.021 55.2999L254.939 55.4358C254.99 55.4425 255.038 55.4636 255.078 55.4967C255.117 55.5298 255.147 55.5735 255.162 55.6227C255.178 55.6719 255.179 55.7245 255.166 55.7745C255.153 55.8244 255.126 55.8695 255.088 55.9046L254.409 56.5501L254.565 57.4605C254.573 57.5112 254.567 57.5631 254.547 57.6105C254.528 57.6579 254.495 57.699 254.454 57.7292C254.412 57.7595 254.363 57.7776 254.312 57.7818C254.261 57.7859 254.21 57.7759 254.164 57.7527L253.349 57.3179L252.533 57.7527C252.488 57.7759 252.436 57.7859 252.385 57.7818C252.334 57.7776 252.285 57.7595 252.244 57.7292C252.202 57.699 252.17 57.6579 252.15 57.6105C252.131 57.5631 252.125 57.5112 252.133 57.4605L252.282 56.5501L251.603 55.9046C251.565 55.8691 251.538 55.8234 251.525 55.7729C251.512 55.7225 251.514 55.6694 251.53 55.6201C251.547 55.5707 251.577 55.5271 251.618 55.4944C251.658 55.4617 251.707 55.4414 251.759 55.4358L252.669 55.2999L253.077 54.471C253.093 54.4124 253.128 54.3607 253.177 54.3239C253.225 54.287 253.285 54.2671 253.345 54.2671C253.406 54.2671 253.465 54.287 253.514 54.3239C253.562 54.3607 253.597 54.4124 253.614 54.471V54.471Z" fill="#EBEBEB"/>
<path d="M141.397 252.766L141.805 253.588L142.716 253.724C142.767 253.731 142.816 253.752 142.856 253.786C142.896 253.819 142.926 253.863 142.942 253.913C142.958 253.962 142.96 254.016 142.948 254.066C142.936 254.117 142.909 254.163 142.872 254.199L142.192 254.838L142.349 255.749C142.357 255.799 142.351 255.851 142.331 255.899C142.311 255.946 142.279 255.987 142.238 256.017C142.196 256.048 142.147 256.066 142.096 256.07C142.045 256.074 141.994 256.064 141.948 256.041L141.132 255.613L140.317 256.041C140.271 256.064 140.22 256.074 140.169 256.07C140.118 256.066 140.069 256.048 140.027 256.017C139.986 255.987 139.954 255.946 139.934 255.899C139.914 255.851 139.908 255.799 139.916 255.749L140.072 254.838L139.393 254.199C139.356 254.164 139.329 254.118 139.316 254.068C139.304 254.018 139.305 253.965 139.321 253.915C139.336 253.866 139.365 253.822 139.404 253.788C139.444 253.754 139.491 253.732 139.543 253.724L140.453 253.588L140.867 252.766C140.886 252.71 140.921 252.661 140.969 252.626C141.016 252.592 141.074 252.573 141.132 252.573C141.191 252.573 141.249 252.592 141.296 252.626C141.344 252.661 141.379 252.71 141.397 252.766V252.766Z" fill="#F5F5F5"/>
<path d="M159.722 45.7402L160.13 46.5691L161.047 46.6982C161.098 46.7063 161.146 46.7286 161.185 46.7624C161.224 46.7963 161.253 46.8404 161.269 46.8897C161.284 46.9391 161.286 46.9919 161.273 47.0421C161.26 47.0922 161.234 47.1378 161.196 47.1738L160.517 47.8532L160.673 48.7569C160.684 48.8082 160.68 48.8615 160.661 48.9105C160.642 48.9594 160.61 49.0019 160.567 49.0328C160.525 49.0637 160.475 49.0816 160.422 49.0845C160.37 49.0874 160.318 49.0751 160.272 49.049L159.457 48.621L158.642 49.049C158.596 49.0751 158.544 49.0874 158.492 49.0845C158.439 49.0816 158.389 49.0637 158.347 49.0328C158.304 49.0019 158.272 48.9594 158.253 48.9105C158.234 48.8615 158.23 48.8082 158.241 48.7569L158.39 47.8532L157.711 47.1738C157.673 47.1374 157.647 47.0912 157.635 47.0406C157.622 46.9899 157.624 46.9368 157.64 46.8872C157.657 46.8376 157.687 46.7936 157.727 46.7602C157.767 46.7268 157.815 46.7053 157.867 46.6982L158.777 46.5691L159.212 45.7402C159.234 45.6908 159.27 45.6488 159.315 45.6194C159.36 45.5899 159.413 45.5742 159.467 45.5742C159.521 45.5742 159.574 45.5899 159.619 45.6194C159.664 45.6488 159.7 45.6908 159.722 45.7402Z" fill="#EBEBEB"/>
<path d="M158.621 209.499C158.623 209.678 158.571 209.853 158.472 210.003C158.374 210.152 158.233 210.269 158.068 210.339C157.903 210.408 157.721 210.427 157.546 210.393C157.37 210.359 157.208 210.273 157.081 210.147C156.954 210.021 156.867 209.86 156.832 209.685C156.796 209.509 156.814 209.327 156.882 209.161C156.95 208.996 157.066 208.854 157.215 208.755C157.364 208.655 157.539 208.602 157.718 208.602C157.956 208.602 158.185 208.696 158.354 208.864C158.523 209.032 158.619 209.26 158.621 209.499V209.499Z" fill="#EBEBEB"/>
<path d="M287.402 96.4198C287.403 96.5988 287.352 96.7742 287.253 96.9237C287.155 97.0732 287.014 97.1901 286.849 97.2595C286.684 97.329 286.502 97.3478 286.326 97.3137C286.151 97.2796 285.989 97.1941 285.862 97.068C285.735 96.9419 285.648 96.7809 285.613 96.6054C285.577 96.43 285.595 96.2479 285.663 96.0824C285.731 95.9169 285.847 95.7753 285.996 95.6757C286.144 95.5762 286.319 95.523 286.498 95.523C286.617 95.5221 286.734 95.5446 286.844 95.5893C286.953 95.6339 287.053 95.6999 287.137 95.7832C287.221 95.8666 287.288 95.9658 287.333 96.075C287.379 96.1843 287.402 96.3015 287.402 96.4198V96.4198Z" fill="#EBEBEB"/>
<path d="M240.548 46.4879C240.548 46.6666 240.495 46.8413 240.396 46.9899C240.296 47.1385 240.155 47.2544 239.99 47.3228C239.825 47.3911 239.643 47.409 239.468 47.3742C239.293 47.3393 239.132 47.2532 239.005 47.1269C238.879 47.0005 238.793 46.8395 238.758 46.6642C238.723 46.4889 238.741 46.3072 238.81 46.1421C238.878 45.9769 238.994 45.8358 239.142 45.7365C239.291 45.6372 239.466 45.5842 239.644 45.5842C239.883 45.586 240.112 45.6818 240.281 45.8509C240.45 46.02 240.546 46.2488 240.548 46.4879V46.4879Z" fill="#F5F5F5"/>
<path d="M241.979 266.724C244.663 266.09 246.326 263.401 245.692 260.716C245.059 258.032 242.369 256.37 239.685 257.003C237.001 257.637 235.338 260.326 235.972 263.011C236.605 265.695 239.295 267.357 241.979 266.724Z" fill="#F0F0F0"/>
<path d="M239.114 258.942C238.091 258.94 237.094 259.263 236.268 259.866C235.845 260.835 235.742 261.912 235.971 262.944C236.201 263.975 236.753 264.907 237.547 265.604C238.34 266.302 239.335 266.73 240.387 266.825C241.44 266.921 242.495 266.68 243.402 266.137C243.402 266.137 243.402 266.137 243.402 266.137C243.803 265.395 244.005 264.561 243.987 263.718C243.969 262.874 243.732 262.05 243.3 261.325C242.868 260.6 242.255 260 241.521 259.584C240.788 259.167 239.958 258.948 239.114 258.949V258.942Z" fill="#E6E6E6"/>
<path d="M200.441 175.066H159.097V156.402L200.441 107.251H220.226V157.462H230.479V175.066H220.226V190.34H200.441V175.066ZM200.441 157.462V131.752L178.59 157.462H200.441Z" fill="#FF7E2F"/>
<path d="M237.552 149.158C237.552 133.626 240.347 122.755 245.936 116.545C251.526 110.335 260.044 107.232 271.49 107.237C276.984 107.237 281.498 107.916 285.031 109.275C288.241 110.431 291.18 112.233 293.667 114.568C295.763 116.569 297.539 118.882 298.932 121.423C300.311 124.077 301.35 126.894 302.024 129.808C303.56 136.032 304.327 142.421 304.307 148.832C304.307 163.653 301.8 174.499 296.785 181.37C291.771 188.242 283.135 191.68 270.878 191.684C264.002 191.684 258.447 190.588 254.212 188.396C249.943 186.168 246.346 182.839 243.796 178.754C241.826 175.747 240.292 171.632 239.196 166.409C238.058 160.73 237.507 154.95 237.552 149.158V149.158ZM260.068 149.212C260.068 159.63 260.986 166.735 262.82 170.526C264.655 174.318 267.32 176.222 270.817 176.241C271.927 176.253 273.028 176.045 274.057 175.629C275.085 175.212 276.021 174.596 276.81 173.815C278.504 172.198 279.75 169.643 280.547 166.151C281.344 162.659 281.743 157.223 281.743 149.844C281.743 139 280.823 131.71 278.984 127.973C277.145 124.236 274.387 122.37 270.709 122.375C266.958 122.375 264.24 124.279 262.555 128.089C260.87 131.898 260.041 138.939 260.068 149.212Z" fill="#FF7E2F"/>
<path d="M352.676 175.065H311.332V156.401L352.676 107.25H372.461V157.461H382.748V175.065H372.461V190.339H352.676V175.065ZM352.676 157.461V131.751L330.832 157.461H352.676Z" fill="#FF7E2F"/>
<g opacity="0.3">
<path opacity="0.3" d="M236.669 78.5709C236.669 78.8224 236.594 79.0684 236.454 79.2774C236.314 79.4865 236.115 79.6494 235.883 79.7453C235.65 79.8413 235.394 79.8661 235.148 79.8165C234.901 79.7669 234.675 79.6452 234.497 79.4669C234.32 79.2885 234.199 79.0615 234.151 78.8145C234.103 78.5676 234.129 78.312 234.226 78.0799C234.323 77.8479 234.487 77.6499 234.697 77.5111C234.907 77.3723 235.153 77.299 235.405 77.3003C235.571 77.3003 235.736 77.3332 235.89 77.3972C236.044 77.4611 236.183 77.5548 236.301 77.6729C236.418 77.7909 236.511 77.931 236.574 78.0852C236.637 78.2393 236.669 78.4043 236.669 78.5709V78.5709Z" fill="#FF7E2F"/>
<path opacity="0.3" d="M149.68 127.375C150.175 127.375 150.577 126.973 150.577 126.478C150.577 125.983 150.175 125.581 149.68 125.581C149.184 125.581 148.783 125.983 148.783 126.478C148.783 126.973 149.184 127.375 149.68 127.375Z" fill="#FF7E2F"/>
<path opacity="0.3" d="M297.852 258.351C298.561 258.351 299.136 257.776 299.136 257.067C299.136 256.357 298.561 255.782 297.852 255.782C297.143 255.782 296.568 256.357 296.568 257.067C296.568 257.776 297.143 258.351 297.852 258.351Z" fill="#FF7E2F"/>
<path opacity="0.3" d="M328.733 206.102C329.228 206.102 329.629 205.7 329.629 205.205C329.629 204.71 329.228 204.308 328.733 204.308C328.237 204.308 327.836 204.71 327.836 205.205C327.836 205.7 328.237 206.102 328.733 206.102Z" fill="#FF7E2F"/>
<path opacity="0.3" d="M388.299 44.5988C388.299 44.7761 388.246 44.9495 388.148 45.097C388.049 45.2445 387.909 45.3595 387.745 45.4274C387.581 45.4952 387.401 45.513 387.227 45.4784C387.053 45.4438 386.893 45.3584 386.768 45.2329C386.642 45.1075 386.557 44.9477 386.522 44.7737C386.488 44.5998 386.506 44.4194 386.573 44.2556C386.641 44.0917 386.756 43.9516 386.904 43.8531C387.051 43.7545 387.225 43.7019 387.402 43.7019C387.64 43.7019 387.868 43.7964 388.036 43.9646C388.204 44.1328 388.299 44.3609 388.299 44.5988V44.5988Z" fill="#FF7E2F"/>
<path opacity="0.3" d="M217.474 26.5121C217.474 26.6895 217.422 26.8629 217.323 27.0104C217.224 27.1579 217.084 27.2728 216.92 27.3407C216.757 27.4086 216.576 27.4263 216.402 27.3917C216.228 27.3571 216.069 27.2717 215.943 27.1463C215.818 27.0208 215.732 26.861 215.698 26.6871C215.663 26.5131 215.681 26.3328 215.749 26.1689C215.817 26.005 215.932 25.8649 216.079 25.7664C216.226 25.6678 216.4 25.6152 216.577 25.6152C216.815 25.617 217.042 25.7121 217.209 25.8799C217.377 26.0477 217.472 26.2748 217.474 26.5121V26.5121Z" fill="#FF7E2F"/>
<path opacity="0.3" d="M288.781 73.5701C289.277 73.5701 289.678 73.1686 289.678 72.6732C289.678 72.1779 289.277 71.7764 288.781 71.7764C288.286 71.7764 287.885 72.1779 287.885 72.6732C287.885 73.1686 288.286 73.5701 288.781 73.5701Z" fill="#FF7E2F"/>
</g>
<path d="M196.058 73.5768C204.28 73.5768 210.945 66.9119 210.945 58.6902C210.945 50.4686 204.28 43.8037 196.058 43.8037C187.837 43.8037 181.172 50.4686 181.172 58.6902C181.172 66.9119 187.837 73.5768 196.058 73.5768Z" fill="#FF7E2F"/>
<path opacity="0.7" d="M196.058 73.5768C204.28 73.5768 210.945 66.9119 210.945 58.6902C210.945 50.4686 204.28 43.8037 196.058 43.8037C187.837 43.8037 181.172 50.4686 181.172 58.6902C181.172 66.9119 187.837 73.5768 196.058 73.5768Z" fill="white"/>
<path opacity="0.2" d="M190.928 47.4593C188.901 47.4531 186.894 47.8624 185.031 48.6619C182.741 51.1785 181.382 54.4032 181.18 57.7995C180.978 61.1958 181.944 64.559 183.919 67.3296C185.894 70.1001 188.758 72.111 192.035 73.0275C195.311 73.9441 198.803 73.7112 201.929 72.3676V72.3676C203.867 70.2318 205.143 67.5794 205.602 64.7323C206.062 61.8852 205.685 58.9659 204.517 56.3289C203.349 53.692 201.441 51.4508 199.024 49.8775C196.607 48.3042 193.785 47.4665 190.901 47.4661L190.928 47.4593Z" fill="#FF7E2F"/>
<path opacity="0.2" d="M189.447 51.3931C189.447 51.6618 189.368 51.9245 189.218 52.148C189.069 52.3715 188.857 52.5456 188.609 52.6485C188.36 52.7513 188.087 52.7783 187.824 52.7258C187.56 52.6734 187.318 52.544 187.128 52.3539C186.938 52.1639 186.808 51.9218 186.756 51.6582C186.703 51.3946 186.73 51.1213 186.833 50.873C186.936 50.6247 187.11 50.4125 187.334 50.2632C187.557 50.1139 187.82 50.0342 188.089 50.0342C188.449 50.0342 188.795 50.1773 189.049 50.4322C189.304 50.687 189.447 51.0327 189.447 51.3931Z" fill="#FF7E2F"/>
<path opacity="0.2" d="M205.455 50.0344C205.455 50.3032 205.375 50.5659 205.226 50.7894C205.077 51.0128 204.865 51.187 204.616 51.2899C204.368 51.3927 204.095 51.4196 203.831 51.3672C203.567 51.3148 203.325 51.1853 203.135 50.9953C202.945 50.8052 202.816 50.5631 202.763 50.2995C202.711 50.0359 202.738 49.7627 202.841 49.5144C202.944 49.2661 203.118 49.0539 203.341 48.9045C203.565 48.7552 203.827 48.6755 204.096 48.6755C204.457 48.6755 204.802 48.8187 205.057 49.0735C205.312 49.3284 205.455 49.674 205.455 50.0344Z" fill="#FF7E2F"/>
<path opacity="0.2" d="M202.737 59.7369C202.737 60.1776 202.606 60.6085 202.362 60.975C202.117 61.3415 201.769 61.6271 201.361 61.7958C200.954 61.9645 200.506 62.0086 200.074 61.9226C199.642 61.8366 199.244 61.6244 198.933 61.3127C198.621 61.001 198.409 60.6039 198.323 60.1716C198.237 59.7393 198.281 59.2912 198.45 58.884C198.618 58.4768 198.904 58.1288 199.27 57.8839C199.637 57.639 200.068 57.5083 200.509 57.5083C201.1 57.5083 201.666 57.7431 202.084 58.161C202.502 58.579 202.737 59.1458 202.737 59.7369V59.7369Z" fill="#FF7E2F"/>
<path opacity="0.2" d="M195.657 66.0895C195.657 66.6781 195.483 67.2534 195.156 67.7428C194.829 68.2322 194.364 68.6136 193.82 68.8389C193.277 69.0641 192.678 69.1231 192.101 69.0082C191.524 68.8934 190.993 68.61 190.577 68.1938C190.161 67.7776 189.878 67.2473 189.763 66.67C189.648 66.0928 189.707 65.4944 189.932 64.9506C190.157 64.4068 190.539 63.9421 191.028 63.6151C191.518 63.2881 192.093 63.1135 192.682 63.1135C193.471 63.1135 194.228 63.4271 194.786 63.9852C195.344 64.5433 195.657 65.3002 195.657 66.0895V66.0895Z" fill="#FF7E2F"/>
<path d="M372.488 238.257C374.146 231.234 369.796 224.197 362.773 222.54C355.75 220.882 348.713 225.231 347.056 232.254C345.398 239.277 349.748 246.314 356.771 247.972C363.794 249.63 370.831 245.28 372.488 238.257Z" fill="#FF7E2F"/>
<path opacity="0.3" d="M372.488 238.257C374.146 231.234 369.796 224.197 362.773 222.54C355.75 220.882 348.713 225.231 347.056 232.254C345.398 239.277 349.748 246.314 356.771 247.972C363.794 249.63 370.831 245.28 372.488 238.257Z" fill="white"/>
<path opacity="0.4" d="M368.025 225.14C365.128 224.265 362.018 224.424 359.226 225.588C356.433 226.753 354.132 228.85 352.714 231.523C351.297 234.196 350.851 237.278 351.454 240.243C352.057 243.208 353.67 245.871 356.019 247.779C357.237 248.148 358.503 248.336 359.776 248.336C362.474 248.335 365.105 247.5 367.308 245.944C369.512 244.388 371.18 242.189 372.084 239.648C372.987 237.106 373.082 234.347 372.356 231.75C371.629 229.152 370.116 226.843 368.025 225.14V225.14Z" fill="#FF7E2F"/>
<path d="M347.302 239.177C333.353 245.74 343.755 250.802 363.411 243.736C381.614 237.193 388.551 228.945 372.244 231.506C373.121 234.937 350.325 243.818 347.302 239.177Z" fill="#FF7E2F"/>
<path opacity="0.2" d="M367.868 107.25C349.598 119.595 325.947 135.902 319.418 175.065H318.025C324.377 136.337 347.166 119.643 365.443 107.25H367.868Z" fill="black"/>
<path d="M273.358 229.848C261.808 229.848 250.386 224.637 244.822 216.13C241.391 210.871 237.402 199.857 249.279 185.161L250.332 186.017C241.934 196.413 240.385 206.842 245.963 215.389C252.758 225.785 268.786 231.017 282.47 227.293C296.486 223.482 304.993 211.292 305.815 193.851C308.621 134.19 340.317 115.811 363.459 102.392C377.843 94.055 388.231 88.0352 385.948 75.3228C385.629 73.5631 384.929 72.3469 383.794 71.5995C380.839 69.6495 375.064 71.0016 368.378 72.5575C355.258 75.615 337.294 79.8003 326.592 61.5981L327.768 60.9187C337.959 78.2648 354.653 74.3716 368.072 71.2462C375.064 69.6223 381.097 68.2159 384.542 70.4784C386.003 71.4364 386.9 72.9516 387.26 75.0986C389.712 88.7418 378.427 95.2916 364.125 103.581C341.248 116.843 309.926 135.005 307.154 193.946C306.298 212.019 297.424 224.664 282.803 228.638C279.722 229.459 276.546 229.866 273.358 229.848Z" fill="#FF7E2F"/>
<path opacity="0.2" d="M273.358 229.848C261.808 229.848 250.386 224.637 244.822 216.13C241.391 210.871 237.402 199.857 249.279 185.161L250.332 186.017C241.934 196.413 240.385 206.842 245.963 215.389C252.758 225.785 268.786 231.017 282.47 227.293C296.486 223.482 304.993 211.292 305.815 193.851C308.621 134.19 340.317 115.811 363.459 102.392C377.843 94.055 388.231 88.0352 385.948 75.3228C385.629 73.5631 384.929 72.3469 383.794 71.5995C380.839 69.6495 375.064 71.0016 368.378 72.5575C355.258 75.615 337.294 79.8003 326.592 61.5981L327.768 60.9187C337.959 78.2648 354.653 74.3716 368.072 71.2462C375.064 69.6223 381.097 68.2159 384.542 70.4784C386.003 71.4364 386.9 72.9516 387.26 75.0986C389.712 88.7418 378.427 95.2916 364.125 103.581C341.248 116.843 309.926 135.005 307.154 193.946C306.298 212.019 297.424 224.664 282.803 228.638C279.722 229.459 276.546 229.866 273.358 229.848Z" fill="white"/>
<path d="M312.603 45.5361C315.733 45.5542 318.844 46.042 321.83 46.9833C321.83 46.9833 329.303 59.7364 330.187 62.658C329.874 65.5388 325.016 70.261 325.016 70.261L312.603 45.5361Z" fill="#FF7E2F"/>
<path opacity="0.3" d="M312.603 45.5361C315.733 45.5542 318.844 46.042 321.83 46.9833C321.83 46.9833 329.303 59.7364 330.187 62.658C329.874 65.5388 325.016 70.261 325.016 70.261L312.603 45.5361Z" fill="white"/>
<path d="M334.739 107.453C331.861 103.934 329.236 100.215 326.885 96.3243C326.314 95.3413 325.773 94.3403 325.261 93.3211C324.969 92.7436 324.69 92.1661 324.418 91.5818C324.062 91.0132 323.785 90.3982 323.596 89.7541C322.781 81.1456 325.73 74.8064 322.917 67.8965L311.72 72.2721C311.72 72.2721 312.671 84.5835 314.845 91.9758C316.204 96.5485 319.248 100.503 322.19 104.165C323.107 105.306 323.99 106.482 324.908 107.63C325.825 108.778 326.749 109.709 327.625 110.79C328.95 112.427 329.385 113.996 328.386 115.926L328.217 116.232C327.931 116.735 329.263 117.305 330.105 116.232C331.464 114.479 331.274 114.588 332.456 113.093C333.176 112.189 333.999 111.204 334.712 110.375C335.056 109.968 335.247 109.453 335.252 108.919C335.257 108.386 335.076 107.867 334.739 107.453V107.453Z" fill="#FF7E2F"/>
<path opacity="0.7" d="M334.739 107.453C331.861 103.934 329.236 100.215 326.885 96.3243C326.314 95.3413 325.773 94.3403 325.261 93.3211C324.969 92.7436 324.69 92.1661 324.418 91.5818C324.062 91.0132 323.785 90.3982 323.596 89.7541C322.781 81.1456 325.73 74.8064 322.917 67.8965L311.72 72.2721C311.72 72.2721 312.671 84.5835 314.845 91.9758C316.204 96.5485 319.248 100.503 322.19 104.165C323.107 105.306 323.99 106.482 324.908 107.63C325.825 108.778 326.749 109.709 327.625 110.79C328.95 112.427 329.385 113.996 328.386 115.926L328.217 116.232C327.931 116.735 329.263 117.305 330.105 116.232C331.464 114.479 331.274 114.588 332.456 113.093C333.176 112.189 333.999 111.204 334.712 110.375C335.056 109.968 335.247 109.453 335.252 108.919C335.257 108.386 335.076 107.867 334.739 107.453V107.453Z" fill="white"/>
<path opacity="0.3" d="M332.001 103.914C330.224 105.818 328.252 107.531 326.117 109.023C326.409 109.349 326.694 109.703 326.986 110.015C329.124 108.571 331.065 106.856 332.762 104.913L332.001 103.914Z" fill="#FF7E2F"/>
<path opacity="0.3" d="M334.739 107.454L334.657 107.358C334.135 107.958 333.83 108.717 333.795 109.512C333.751 110.057 333.839 110.605 334.053 111.109L334.698 110.341C335.036 109.938 335.224 109.43 335.231 108.905C335.239 108.379 335.065 107.866 334.739 107.454V107.454Z" fill="#FF7E2F"/>
<path d="M309.939 53.6895C308.725 55.5071 307.269 57.1506 305.611 58.5747C304.692 59.3671 303.684 60.0511 302.608 60.613C302.043 60.9026 301.457 61.1502 300.855 61.3536L300.393 61.503L300.244 61.5438L299.924 61.6321C299.728 61.6788 299.528 61.7106 299.326 61.7273C298.753 61.7711 298.177 61.7183 297.621 61.571C296.92 61.3721 296.249 61.082 295.623 60.7081C295.12 60.414 294.633 60.0943 294.163 59.7501C293.313 59.1182 292.501 58.4377 291.73 57.7118C290.244 56.3036 288.88 54.7716 287.654 53.1323C287.417 52.813 287.3 52.4212 287.322 52.0246C287.344 51.628 287.503 51.2514 287.773 50.9599C288.043 50.6684 288.406 50.4801 288.8 50.4277C289.193 50.3753 289.593 50.462 289.93 50.6728H289.984C291.588 51.6919 293.205 52.7654 294.781 53.7235C295.583 54.1923 296.357 54.6679 297.125 55.0348C297.476 55.2183 297.836 55.3816 298.205 55.524C298.435 55.6255 298.681 55.6853 298.932 55.7006C298.973 55.7006 298.932 55.6531 298.681 55.6599C298.602 55.6551 298.522 55.6551 298.443 55.6599L298.294 55.6938L298.518 55.5783C298.82 55.4159 299.112 55.2367 299.394 55.0416C300.002 54.6129 300.571 54.1309 301.093 53.6012C302.28 52.3572 303.392 51.0436 304.422 49.6672C304.987 49.0355 305.767 48.6376 306.61 48.5515C307.453 48.4654 308.297 48.6974 308.978 49.202C309.659 49.7065 310.126 50.4472 310.289 51.2786C310.452 52.1101 310.298 52.9724 309.858 53.6963L309.939 53.6895Z" fill="#FF7E2F"/>
<path opacity="0.7" d="M309.939 53.6895C308.725 55.5071 307.269 57.1506 305.611 58.5747C304.692 59.3671 303.684 60.0511 302.608 60.613C302.043 60.9026 301.457 61.1502 300.855 61.3536L300.393 61.503L300.244 61.5438L299.924 61.6321C299.728 61.6788 299.528 61.7106 299.326 61.7273C298.753 61.7711 298.177 61.7183 297.621 61.571C296.92 61.3721 296.249 61.082 295.623 60.7081C295.12 60.414 294.633 60.0943 294.163 59.7501C293.313 59.1182 292.501 58.4377 291.73 57.7118C290.244 56.3036 288.88 54.7716 287.654 53.1323C287.417 52.813 287.3 52.4212 287.322 52.0246C287.344 51.628 287.503 51.2514 287.773 50.9599C288.043 50.6684 288.406 50.4801 288.8 50.4277C289.193 50.3753 289.593 50.462 289.93 50.6728H289.984C291.588 51.6919 293.205 52.7654 294.781 53.7235C295.583 54.1923 296.357 54.6679 297.125 55.0348C297.476 55.2183 297.836 55.3816 298.205 55.524C298.435 55.6255 298.681 55.6853 298.932 55.7006C298.973 55.7006 298.932 55.6531 298.681 55.6599C298.602 55.6551 298.522 55.6551 298.443 55.6599L298.294 55.6938L298.518 55.5783C298.82 55.4159 299.112 55.2367 299.394 55.0416C300.002 54.6129 300.571 54.1309 301.093 53.6012C302.28 52.3572 303.392 51.0436 304.422 49.6672C304.987 49.0355 305.767 48.6376 306.61 48.5515C307.453 48.4654 308.297 48.6974 308.978 49.202C309.659 49.7065 310.126 50.4472 310.289 51.2786C310.452 52.1101 310.298 52.9724 309.858 53.6963L309.939 53.6895Z" fill="white"/>
<path d="M285.106 49.2187L285.901 50.5775C285.901 50.5775 286.506 52.3577 287.722 52.6838L291.024 51.6171L290.854 51.3385C290.433 50.6998 290.48 49.4565 290.623 48.4237C290.766 47.391 290.236 47.357 289.842 47.6152C289.562 47.9364 289.366 48.3214 289.271 48.7363C289.109 48.5119 288.929 48.3006 288.734 48.1044L287.729 47.0988C287.518 46.8926 287.237 46.7738 286.942 46.7663C286.647 46.7587 286.36 46.8629 286.139 47.058L285.323 47.785C285.13 47.9639 285.003 48.2033 284.964 48.4638C284.924 48.7243 284.974 48.9905 285.106 49.2187V49.2187Z" fill="#FF7E2F"/>
<path opacity="0.7" d="M285.106 49.2187L285.901 50.5775C285.901 50.5775 286.506 52.3577 287.722 52.6838L291.024 51.6171L290.854 51.3385C290.433 50.6998 290.48 49.4565 290.623 48.4237C290.766 47.391 290.236 47.357 289.842 47.6152C289.562 47.9364 289.366 48.3214 289.271 48.7363C289.109 48.5119 288.929 48.3006 288.734 48.1044L287.729 47.0988C287.518 46.8926 287.237 46.7738 286.942 46.7663C286.647 46.7587 286.36 46.8629 286.139 47.058L285.323 47.785C285.13 47.9639 285.003 48.2033 284.964 48.4638C284.924 48.7243 284.974 48.9905 285.106 49.2187V49.2187Z" fill="white"/>
<path d="M315.939 44.3267C312.276 45.2975 308.768 46.7772 305.516 48.7227C305.009 49.0402 304.611 49.5051 304.375 50.0552C304.14 50.6053 304.078 51.2143 304.198 51.8005C305.51 58.2144 308.492 66.8026 311.713 72.2721L326.735 66.0552C326.837 63.4054 323.189 54.8308 319.472 46.5417C318.806 45.0537 317.522 43.9462 315.939 44.3267Z" fill="#FF7E2F"/>
<path opacity="0.8" d="M315.939 44.3267C312.276 45.2975 308.768 46.7772 305.516 48.7227C305.009 49.0402 304.611 49.5051 304.375 50.0552C304.14 50.6053 304.078 51.2143 304.198 51.8005C305.51 58.2144 308.492 66.8026 311.713 72.2721L326.735 66.0552C326.837 63.4054 323.189 54.8308 319.472 46.5417C318.806 45.0537 317.522 43.9462 315.939 44.3267Z" fill="white"/>
<path opacity="0.3" d="M321.803 51.7937L318.82 50.7949C319.499 52.5411 321.898 54.7493 323.576 56.047C323.032 54.6881 322.428 53.2613 321.803 51.7937Z" fill="#FF7E2F"/>
<path d="M314.953 37.6003C313.71 35.2359 311.026 34.0468 307.806 34.3118C305.088 34.5428 302.683 37.3149 302.968 38.8097C303.254 40.3045 305.536 40.9432 305.971 41.4595L304.089 42.8184C303.866 42.9793 303.678 43.1837 303.536 43.4192C303.394 43.6547 303.302 43.9165 303.264 44.1888C303.225 44.4611 303.243 44.7383 303.315 45.0038C303.387 45.2692 303.511 45.5173 303.682 45.7332C304.477 46.7388 305.523 47.7715 306.128 48.5325C311.332 48.3966 315.184 46.4127 316.577 44.5034C316.054 42.0846 316.163 39.9512 314.953 37.6003Z" fill="#FF7E2F"/>
<path opacity="0.8" d="M314.953 37.6003C313.71 35.2359 311.026 34.0468 307.806 34.3118C305.088 34.5428 302.683 37.3149 302.968 38.8097C303.254 40.3045 305.536 40.9432 305.971 41.4595L304.089 42.8184C303.866 42.9793 303.678 43.1837 303.536 43.4192C303.394 43.6547 303.302 43.9165 303.264 44.1888C303.225 44.4611 303.243 44.7383 303.315 45.0038C303.387 45.2692 303.511 45.5173 303.682 45.7332C304.477 46.7388 305.523 47.7715 306.128 48.5325C311.332 48.3966 315.184 46.4127 316.577 44.5034C316.054 42.0846 316.163 39.9512 314.953 37.6003Z" fill="white"/>
<path d="M312.399 39.0678C312.768 40.0154 312.848 41.0512 312.629 42.0443C312.41 43.0375 311.902 43.9434 311.168 44.6475C310.434 45.3517 309.508 45.8225 308.506 46.0004C307.505 46.1782 306.473 46.0553 305.542 45.647C304.61 45.2387 303.821 44.5634 303.273 43.7065C302.725 42.8495 302.444 41.8495 302.464 40.8326C302.485 39.8158 302.806 38.8279 303.388 37.9937C303.97 37.1596 304.786 36.5166 305.733 36.1462C307.005 35.6509 308.421 35.6804 309.67 36.2282C310.92 36.7759 311.901 37.7972 312.399 39.0678V39.0678Z" fill="#263238"/>
<path d="M356.515 100.299C356.44 98.0639 356.338 98.2609 356.277 96.3788C356.236 95.2238 356.229 93.9396 356.223 92.8322C356.22 92.3062 356.037 91.7972 355.702 91.3911C355.368 90.9851 354.904 90.7069 354.388 90.6036C353.491 90.4201 352.588 90.2503 351.67 90.06C350.495 89.8086 349.333 89.5369 348.185 89.204C347.288 88.9458 346.405 88.6604 345.528 88.3411C344.652 88.0217 343.667 87.6616 342.756 87.2404C341.683 86.7851 340.623 86.2959 339.576 85.7864C338.401 85.2292 337.239 84.6449 336.077 84.0538C331.607 76.6547 331.511 71.7763 326.715 66.0554L316.414 70.7164C316.414 70.7164 323.983 84.1421 329.133 89.8358C332.103 93.1107 336.757 94.5919 340.908 95.6654C343.904 96.4332 346.942 97.0243 349.979 97.5882C351.161 97.8057 352.445 97.8872 353.464 98.5938C354.218 99.172 354.735 100.005 354.918 100.938C354.963 101.128 355.004 101.318 355.04 101.509C355.17 102.079 356.562 101.645 356.515 100.299Z" fill="#FF7E2F"/>
<path opacity="0.8" d="M356.515 100.299C356.44 98.0639 356.338 98.2609 356.277 96.3788C356.236 95.2238 356.229 93.9396 356.223 92.8322C356.22 92.3062 356.037 91.7972 355.702 91.3911C355.368 90.9851 354.904 90.7069 354.388 90.6036C353.491 90.4201 352.588 90.2503 351.67 90.06C350.495 89.8086 349.333 89.5369 348.185 89.204C347.288 88.9458 346.405 88.6604 345.528 88.3411C344.652 88.0217 343.667 87.6616 342.756 87.2404C341.683 86.7851 340.623 86.2959 339.576 85.7864C338.401 85.2292 337.239 84.6449 336.077 84.0538C331.607 76.6547 331.511 71.7763 326.715 66.0554L316.414 70.7164C316.414 70.7164 323.983 84.1421 329.133 89.8358C332.103 93.1107 336.757 94.5919 340.908 95.6654C343.904 96.4332 346.942 97.0243 349.979 97.5882C351.161 97.8057 352.445 97.8872 353.464 98.5938C354.218 99.172 354.735 100.005 354.918 100.938C354.963 101.128 355.004 101.318 355.04 101.509C355.17 102.079 356.562 101.645 356.515 100.299Z" fill="white"/>
<path opacity="0.3" d="M351.29 89.9717C350.882 89.8834 350.475 89.795 350.06 89.6931C350.094 92.044 348.994 96.0934 348.593 97.3232L349.884 97.5678C350.73 95.1204 351.204 92.5598 351.29 89.9717V89.9717Z" fill="#FF7E2F"/>
<path opacity="0.3" d="M356.25 92.832C356.248 92.307 356.065 91.7988 355.732 91.3929C355.399 90.9869 354.937 90.7081 354.422 90.6035L353.743 90.4744C353.852 91.2468 354.247 91.95 354.85 92.4447C355.238 92.8033 355.703 93.0683 356.209 93.2193C356.25 93.097 356.25 92.9611 356.25 92.832Z" fill="#FF7E2F"/>
<path d="M311.441 39.1087C311.713 40.1414 310.558 41.2217 309.64 40.3317C308.784 39.4138 307.847 38.5747 306.841 37.8245C305.897 37.2334 307.154 36.2007 308.641 36.6015C309.276 36.761 309.863 37.0726 310.351 37.5094C310.838 37.9462 311.213 38.4951 311.441 39.1087V39.1087Z" fill="white"/>
<path d="M311.516 71.9391C311.04 72.1158 311.91 72.9311 311.91 72.9311C311.91 72.9311 321.422 69.6766 327.197 66.3269C327.211 66.1241 327.177 65.921 327.096 65.7342C327.016 65.5475 326.892 65.3827 326.735 65.2534C321.792 67.7677 316.711 69.9999 311.516 71.9391V71.9391Z" fill="#FF7E2F"/>
<path opacity="0.5" d="M311.516 71.9391C311.04 72.1158 311.91 72.9311 311.91 72.9311C311.91 72.9311 321.422 69.6766 327.197 66.3269C327.211 66.1241 327.177 65.921 327.096 65.7342C327.016 65.5475 326.892 65.3827 326.735 65.2534C321.792 67.7677 316.711 69.9999 311.516 71.9391V71.9391Z" fill="white"/>
<path d="M318.514 43.8782C320.389 44.8294 322.149 45.8282 323.95 46.9356C324.826 47.4928 325.696 48.0567 326.559 48.6682C327.421 49.2797 328.278 49.9048 329.14 50.6114L329.46 50.8764L329.861 51.2433C330.1 51.457 330.326 51.6839 330.54 51.9227C330.758 52.1605 330.941 52.3916 331.118 52.6022C331.294 52.8128 331.485 53.0642 331.641 53.2816C332.274 54.1551 332.859 55.0624 333.394 55.9994C334.447 57.8164 335.355 59.7134 336.112 61.6727C336.251 62.0429 336.259 62.4501 336.132 62.825C336.005 63.1999 335.753 63.5194 335.417 63.7292C335.082 63.939 334.684 64.0261 334.292 63.9757C333.899 63.9253 333.536 63.7406 333.265 63.4528L333.231 63.4121C331.872 61.9649 330.561 60.4429 329.242 59.0229C327.924 57.6029 326.586 56.1624 325.478 55.5306C323.936 54.5726 322.217 53.6145 320.512 52.6769L315.375 49.8233C314.579 49.4016 313.982 48.6808 313.717 47.8194C313.452 46.9581 313.54 46.0267 313.962 45.2303C314.383 44.4338 315.104 43.8374 315.966 43.5724C316.827 43.3074 317.758 43.3954 318.555 43.817L318.514 43.8782Z" fill="#FF7E2F"/>
<path opacity="0.8" d="M318.514 43.8782C320.389 44.8294 322.149 45.8282 323.95 46.9356C324.826 47.4928 325.696 48.0567 326.559 48.6682C327.421 49.2797 328.278 49.9048 329.14 50.6114L329.46 50.8764L329.861 51.2433C330.1 51.457 330.326 51.6839 330.54 51.9227C330.758 52.1605 330.941 52.3916 331.118 52.6022C331.294 52.8128 331.485 53.0642 331.641 53.2816C332.274 54.1551 332.859 55.0624 333.394 55.9994C334.447 57.8164 335.355 59.7134 336.112 61.6727C336.251 62.0429 336.259 62.4501 336.132 62.825C336.005 63.1999 335.753 63.5194 335.417 63.7292C335.082 63.939 334.684 64.0261 334.292 63.9757C333.899 63.9253 333.536 63.7406 333.265 63.4528L333.231 63.4121C331.872 61.9649 330.561 60.4429 329.242 59.0229C327.924 57.6029 326.586 56.1624 325.478 55.5306C323.936 54.5726 322.217 53.6145 320.512 52.6769L315.375 49.8233C314.579 49.4016 313.982 48.6808 313.717 47.8194C313.452 46.9581 313.54 46.0267 313.962 45.2303C314.383 44.4338 315.104 43.8374 315.966 43.5724C316.827 43.3074 317.758 43.3954 318.555 43.817L318.514 43.8782Z" fill="white"/>
<path d="M337.722 65.0631L337.144 63.6159C337.144 63.6159 336.825 61.7678 335.677 61.2515L332.28 61.7882L332.395 62.0872C332.708 62.7666 332.47 64.01 332.164 65.002C331.858 65.994 332.375 66.1231 332.809 65.926C333.054 65.8173 333.292 65.3757 333.55 64.9069C333.677 65.143 333.82 65.3701 333.978 65.5863L334.814 66.7345C334.988 66.9725 335.247 67.1356 335.536 67.191C335.826 67.2465 336.126 67.1902 336.377 67.0335L337.301 66.4424C337.517 66.2944 337.676 66.0772 337.753 65.8266C337.829 65.5759 337.819 65.3067 337.722 65.0631V65.0631Z" fill="#FF7E2F"/>
<path opacity="0.8" d="M337.722 65.0631L337.144 63.6159C337.144 63.6159 336.825 61.7678 335.677 61.2515L332.28 61.7882L332.395 62.0872C332.708 62.7666 332.47 64.01 332.164 65.002C331.858 65.994 332.375 66.1231 332.809 65.926C333.054 65.8173 333.292 65.3757 333.55 64.9069C333.677 65.143 333.82 65.3701 333.978 65.5863L334.814 66.7345C334.988 66.9725 335.247 67.1356 335.536 67.191C335.826 67.2465 336.126 67.1902 336.377 67.0335L337.301 66.4424C337.517 66.2944 337.676 66.0772 337.753 65.8266C337.829 65.5759 337.819 65.3067 337.722 65.0631V65.0631Z" fill="white"/>
<path opacity="0.3" d="M315.647 51.6919L314.818 51.7598L309.729 64.0441C310.007 64.0641 310.286 64.0412 310.558 63.9762C310.558 63.9762 317.189 61.503 319.193 60.579C317.848 57.8001 315.647 51.6919 315.647 51.6919Z" fill="#FF7E2F"/>
<path d="M306.359 54.9124C306.977 58.1235 308.125 61.2095 309.756 64.044C312.243 63.1879 316.387 61.5709 318.398 60.6468C317.047 57.749 315.847 54.7826 314.804 51.7598C312.677 51.9024 308.01 53.6894 306.359 54.9124Z" fill="white"/>
<path opacity="0.3" d="M311.407 57.569C311.308 57.9013 311.112 58.1966 310.845 58.4176C310.578 58.6387 310.251 58.7755 309.906 58.8108C309.561 58.8461 309.213 58.7782 308.907 58.6158C308.6 58.4535 308.349 58.2038 308.184 57.8986C308.02 57.5933 307.95 57.2461 307.982 56.9008C308.015 56.5556 308.15 56.2279 308.369 55.9591C308.588 55.6904 308.882 55.4926 309.214 55.391C309.545 55.2893 309.9 55.2883 310.232 55.388C310.677 55.5216 311.05 55.8263 311.271 56.2353C311.491 56.6442 311.54 57.1239 311.407 57.569V57.569Z" fill="#FF7E2F"/>
<path opacity="0.6" d="M312.705 55.2315C312.678 55.345 312.618 55.4477 312.532 55.5263C312.446 55.6049 312.339 55.6557 312.223 55.6721C312.108 55.6884 311.991 55.6694 311.886 55.6178C311.782 55.5661 311.695 55.484 311.639 55.3824C311.582 55.2808 311.557 55.1643 311.567 55.0484C311.578 54.9324 311.623 54.8222 311.697 54.7324C311.771 54.6427 311.871 54.5774 311.983 54.5452C312.095 54.513 312.214 54.5154 312.324 54.5521C312.462 54.5961 312.578 54.6907 312.648 54.8169C312.719 54.943 312.739 55.0912 312.705 55.2315Z" fill="#FF7E2F"/>
<path opacity="0.6" d="M314.227 54.6405C314.211 54.7193 314.178 54.794 314.132 54.8596C314.085 54.9253 314.026 54.9805 313.957 55.0217C313.888 55.063 313.811 55.0894 313.731 55.0992C313.651 55.109 313.57 55.1021 313.493 55.0788C313.416 55.0555 313.345 55.0164 313.284 54.964C313.223 54.9116 313.174 54.847 313.139 54.7744C313.105 54.7018 313.086 54.6228 313.083 54.5424C313.081 54.462 313.095 54.3821 313.126 54.3076C313.148 54.2357 313.183 54.1688 313.231 54.1107C313.279 54.0527 313.337 54.0046 313.404 53.9692C313.47 53.9339 313.542 53.912 313.617 53.9047C313.692 53.8975 313.767 53.9051 313.839 53.9271C313.985 53.9712 314.107 54.0708 314.179 54.2043C314.252 54.3378 314.269 54.4946 314.227 54.6405V54.6405Z" fill="#FF7E2F"/>
<path opacity="0.5" d="M316.36 59.9334L310.075 62.4133L309.702 61.1767L315.98 58.6968L316.36 59.9334Z" fill="#FF7E2F"/>
<path opacity="0.2" d="M281.688 154.362C281.674 158.319 281.292 162.265 280.547 166.151C279.745 169.643 278.499 172.198 276.81 173.815C276.023 174.596 275.088 175.213 274.061 175.629C273.033 176.046 271.933 176.253 270.824 176.24C267.332 176.24 264.666 174.336 262.827 170.526C262.504 169.842 262.229 169.136 262.005 168.413C258.121 171.749 254.504 175.384 251.188 179.284L247.58 183.538C249.522 185.505 251.762 187.154 254.218 188.423C258.449 190.611 264.002 191.707 270.878 191.711C272.088 191.711 273.256 191.677 274.391 191.609C278.551 185.454 281.993 178.843 284.651 171.906L294.74 145.598L281.688 154.362Z" fill="black"/>
<path d="M190.732 190.257L202.622 202.147L235.914 170.778C224.439 166.395 202.126 178.836 190.732 190.257Z" fill="#263238"/>
<path d="M232.198 231.703C228.4 227.898 220.307 219.813 220.307 219.813L251.677 186.52C256.032 197.969 243.592 220.302 232.198 231.703Z" fill="#263238"/>
<path d="M277.707 156.761L290.677 131.751L265.667 144.735C257.634 148.901 250.216 154.16 243.626 160.362L200.991 200.496L221.938 221.444L262.073 178.809C268.278 172.217 273.539 164.797 277.707 156.761V156.761Z" fill="#FF7E2F"/>
<path opacity="0.6" d="M277.707 156.761L290.677 131.751L265.667 144.735C257.634 148.901 250.216 154.16 243.626 160.362L200.991 200.496L221.938 221.444L262.073 178.809C268.278 172.217 273.539 164.797 277.707 156.761V156.761Z" fill="white"/>
<path d="M251.073 180.12C255.913 180.12 259.837 176.196 259.837 171.355C259.837 166.514 255.913 162.59 251.073 162.59C246.232 162.59 242.308 166.514 242.308 171.355C242.308 176.196 246.232 180.12 251.073 180.12Z" fill="white"/>
<path d="M251.072 176.988C254.183 176.988 256.705 174.466 256.705 171.355C256.705 168.245 254.183 165.723 251.072 165.723C247.962 165.723 245.44 168.245 245.44 171.355C245.44 174.466 247.962 176.988 251.072 176.988Z" fill="#FF7E2F"/>
<path opacity="0.3" d="M229.025 213.915L208.513 193.403L225.308 177.599L244.829 197.126L229.025 213.915Z" fill="#FF7E2F"/>
<path d="M195.372 209.023C180.017 210.267 174.928 220.098 173.188 233.164C172.305 239.829 171.911 246.576 166.319 250.476C165.983 250.705 165.73 251.036 165.597 251.421C165.465 251.805 165.461 252.223 165.586 252.61C165.71 252.997 165.957 253.333 166.289 253.568C166.621 253.803 167.02 253.925 167.427 253.914C188.041 253.269 197.655 243.179 198.864 238.966C198.547 241.168 197.979 243.327 197.173 245.401C197.024 245.767 196.995 246.17 197.09 246.553C197.184 246.937 197.397 247.28 197.698 247.536C197.999 247.791 198.373 247.945 198.767 247.975C199.161 248.005 199.554 247.91 199.89 247.704C205.672 244.083 212.929 237.41 213.411 226.587C209.158 220.56 195.372 209.023 195.372 209.023Z" fill="#FF7E2F"/>
<path opacity="0.2" d="M195.372 209.023C180.017 210.267 174.928 220.098 173.188 233.164C172.305 239.829 171.911 246.576 166.319 250.476C165.983 250.705 165.73 251.036 165.597 251.421C165.465 251.805 165.461 252.223 165.586 252.61C165.71 252.997 165.957 253.333 166.289 253.568C166.621 253.803 167.02 253.925 167.427 253.914C188.041 253.269 197.655 243.179 198.864 238.966C198.547 241.168 197.979 243.327 197.173 245.401C197.024 245.767 196.995 246.17 197.09 246.553C197.184 246.937 197.397 247.28 197.698 247.536C197.999 247.791 198.373 247.945 198.767 247.975C199.161 248.005 199.554 247.91 199.89 247.704C205.672 244.083 212.929 237.41 213.411 226.587C209.158 220.56 195.372 209.023 195.372 209.023Z" fill="white"/>
<path d="M215.796 231.228L191.2 206.632L204.3 203.799L218.629 218.128L215.796 231.228Z" fill="#FF7E2F"/>
<path d="M188.531 263.598V265.925H185.372V275.522H182.467V265.925H179.308V263.598H188.531ZM192.893 267.624C193.233 267.103 193.657 266.695 194.167 266.401C194.677 266.095 195.243 265.942 195.866 265.942V269.017H195.067C194.343 269.017 193.799 269.175 193.437 269.492C193.074 269.798 192.893 270.341 192.893 271.123V275.522H189.989V266.044H192.893V267.624ZM196.676 270.766C196.676 269.792 196.858 268.937 197.22 268.201C197.594 267.465 198.097 266.899 198.732 266.503C199.366 266.106 200.073 265.908 200.855 265.908C201.523 265.908 202.106 266.044 202.604 266.316C203.114 266.588 203.505 266.944 203.776 267.386V266.044H206.681V275.522H203.776V274.18C203.493 274.622 203.097 274.978 202.587 275.25C202.089 275.522 201.506 275.658 200.838 275.658C200.068 275.658 199.366 275.46 198.732 275.063C198.097 274.656 197.594 274.084 197.22 273.348C196.858 272.6 196.676 271.74 196.676 270.766ZM203.776 270.783C203.776 270.058 203.572 269.486 203.165 269.067C202.768 268.649 202.282 268.439 201.704 268.439C201.127 268.439 200.634 268.649 200.226 269.067C199.83 269.475 199.632 270.041 199.632 270.766C199.632 271.491 199.83 272.068 200.226 272.499C200.634 272.918 201.127 273.127 201.704 273.127C202.282 273.127 202.768 272.918 203.165 272.499C203.572 272.08 203.776 271.508 203.776 270.783ZM210.243 265.059C209.733 265.059 209.314 264.912 208.986 264.617C208.669 264.312 208.51 263.938 208.51 263.496C208.51 263.043 208.669 262.67 208.986 262.375C209.314 262.069 209.733 261.917 210.243 261.917C210.741 261.917 211.149 262.069 211.466 262.375C211.794 262.67 211.958 263.043 211.958 263.496C211.958 263.938 211.794 264.312 211.466 264.617C211.149 264.912 210.741 265.059 210.243 265.059ZM211.687 266.044V275.522H208.782V266.044H211.687ZM216.696 262.953V275.522H213.791V262.953H216.696ZM227.735 270.63C227.735 270.902 227.718 271.185 227.684 271.479H221.111C221.156 272.068 221.343 272.521 221.671 272.838C222.011 273.144 222.424 273.297 222.911 273.297C223.636 273.297 224.14 272.991 224.423 272.38H227.514C227.356 273.002 227.067 273.563 226.648 274.061C226.24 274.559 225.725 274.95 225.102 275.233C224.48 275.516 223.783 275.658 223.013 275.658C222.085 275.658 221.258 275.46 220.533 275.063C219.809 274.667 219.242 274.101 218.835 273.365C218.427 272.629 218.223 271.768 218.223 270.783C218.223 269.798 218.422 268.937 218.818 268.201C219.226 267.465 219.792 266.899 220.516 266.503C221.241 266.106 222.073 265.908 223.013 265.908C223.93 265.908 224.746 266.101 225.459 266.486C226.173 266.871 226.727 267.42 227.124 268.133C227.531 268.847 227.735 269.679 227.735 270.63ZM224.763 269.866C224.763 269.368 224.593 268.971 224.253 268.677C223.913 268.382 223.489 268.235 222.979 268.235C222.492 268.235 222.079 268.377 221.739 268.66C221.411 268.943 221.207 269.345 221.128 269.866H224.763ZM232.172 267.624C232.512 267.103 232.936 266.695 233.446 266.401C233.955 266.095 234.522 265.942 235.144 265.942V269.017H234.346C233.621 269.017 233.078 269.175 232.716 269.492C232.353 269.798 232.172 270.341 232.172 271.123V275.522H229.267V266.044H232.172V267.624ZM245.415 273.059V275.522H243.937C242.884 275.522 242.063 275.267 241.474 274.758C240.885 274.237 240.591 273.393 240.591 272.227V268.456H239.436V266.044H240.591V263.734H243.495V266.044H245.398V268.456H243.495V272.261C243.495 272.544 243.563 272.748 243.699 272.872C243.835 272.997 244.062 273.059 244.379 273.059H245.415ZM248.493 265.059C247.984 265.059 247.565 264.912 247.236 264.617C246.919 264.312 246.761 263.938 246.761 263.496C246.761 263.043 246.919 262.67 247.236 262.375C247.565 262.069 247.984 261.917 248.493 261.917C248.992 261.917 249.399 262.069 249.716 262.375C250.045 262.67 250.209 263.043 250.209 263.496C250.209 263.938 250.045 264.312 249.716 264.617C249.399 264.912 248.992 265.059 248.493 265.059ZM249.937 266.044V275.522H247.033V266.044H249.937ZM251.464 270.766C251.464 269.792 251.646 268.937 252.008 268.201C252.382 267.465 252.886 266.899 253.52 266.503C254.154 266.106 254.862 265.908 255.643 265.908C256.266 265.908 256.832 266.038 257.341 266.299C257.862 266.559 258.27 266.91 258.564 267.352V262.953H261.469V275.522H258.564V274.163C258.293 274.616 257.902 274.978 257.392 275.25C256.894 275.522 256.311 275.658 255.643 275.658C254.862 275.658 254.154 275.46 253.52 275.063C252.886 274.656 252.382 274.084 252.008 273.348C251.646 272.6 251.464 271.74 251.464 270.766ZM258.564 270.783C258.564 270.058 258.361 269.486 257.953 269.067C257.557 268.649 257.07 268.439 256.492 268.439C255.915 268.439 255.422 268.649 255.014 269.067C254.618 269.475 254.42 270.041 254.42 270.766C254.42 271.491 254.618 272.068 255.014 272.499C255.422 272.918 255.915 273.127 256.492 273.127C257.07 273.127 257.557 272.918 257.953 272.499C258.361 272.08 258.564 271.508 258.564 270.783ZM262.993 270.766C262.993 269.792 263.174 268.937 263.536 268.201C263.91 267.465 264.414 266.899 265.048 266.503C265.682 266.106 266.39 265.908 267.171 265.908C267.839 265.908 268.422 266.044 268.921 266.316C269.43 266.588 269.821 266.944 270.093 267.386V266.044H272.997V275.522H270.093V274.18C269.81 274.622 269.413 274.978 268.904 275.25C268.405 275.522 267.822 275.658 267.154 275.658C266.384 275.658 265.682 275.46 265.048 275.063C264.414 274.656 263.91 274.084 263.536 273.348C263.174 272.6 262.993 271.74 262.993 270.766ZM270.093 270.783C270.093 270.058 269.889 269.486 269.481 269.067C269.085 268.649 268.598 268.439 268.02 268.439C267.443 268.439 266.95 268.649 266.543 269.067C266.146 269.475 265.948 270.041 265.948 270.766C265.948 271.491 266.146 272.068 266.543 272.499C266.95 272.918 267.443 273.127 268.02 273.127C268.598 273.127 269.085 272.918 269.481 272.499C269.889 272.08 270.093 271.508 270.093 270.783ZM280.89 275.522L278.003 271.547V275.522H275.098V262.953H278.003V269.9L280.873 266.044H284.457L280.517 270.8L284.491 275.522H280.89ZM294.48 273.059V275.522H293.002C291.949 275.522 291.128 275.267 290.54 274.758C289.951 274.237 289.656 273.393 289.656 272.227V268.456H288.501V266.044H289.656V263.734H292.561V266.044H294.463V268.456H292.561V272.261C292.561 272.544 292.629 272.748 292.765 272.872C292.9 272.997 293.127 273.059 293.444 273.059H294.48ZM305.032 270.63C305.032 270.902 305.015 271.185 304.981 271.479H298.408C298.453 272.068 298.64 272.521 298.969 272.838C299.308 273.144 299.722 273.297 300.208 273.297C300.933 273.297 301.437 272.991 301.72 272.38H304.812C304.653 273.002 304.364 273.563 303.945 274.061C303.538 274.559 303.022 274.95 302.4 275.233C301.777 275.516 301.08 275.658 300.31 275.658C299.382 275.658 298.555 275.46 297.831 275.063C297.106 274.667 296.54 274.101 296.132 273.365C295.724 272.629 295.52 271.768 295.52 270.783C295.52 269.798 295.719 268.937 296.115 268.201C296.523 267.465 297.089 266.899 297.814 266.503C298.538 266.106 299.371 265.908 300.31 265.908C301.228 265.908 302.043 266.101 302.756 266.486C303.47 266.871 304.025 267.42 304.421 268.133C304.829 268.847 305.032 269.679 305.032 270.63ZM302.06 269.866C302.06 269.368 301.89 268.971 301.55 268.677C301.211 268.382 300.786 268.235 300.276 268.235C299.79 268.235 299.376 268.377 299.036 268.66C298.708 268.943 298.504 269.345 298.425 269.866H302.06ZM309.469 267.624C309.809 267.103 310.233 266.695 310.743 266.401C311.253 266.095 311.819 265.942 312.442 265.942V269.017H311.643C310.919 269.017 310.375 269.175 310.013 269.492C309.65 269.798 309.469 270.341 309.469 271.123V275.522H306.565V266.044H309.469V267.624ZM317.686 275.658C316.859 275.658 316.123 275.516 315.477 275.233C314.832 274.95 314.322 274.565 313.949 274.078C313.575 273.58 313.366 273.025 313.32 272.414H316.191C316.225 272.742 316.378 273.008 316.649 273.212C316.921 273.416 317.255 273.518 317.652 273.518C318.014 273.518 318.291 273.45 318.484 273.314C318.688 273.167 318.79 272.98 318.79 272.753C318.79 272.482 318.648 272.283 318.365 272.159C318.082 272.023 317.623 271.876 316.989 271.717C316.31 271.559 315.744 271.395 315.291 271.225C314.838 271.043 314.447 270.766 314.119 270.392C313.79 270.007 313.626 269.492 313.626 268.847C313.626 268.303 313.773 267.811 314.068 267.369C314.373 266.916 314.815 266.559 315.393 266.299C315.981 266.038 316.678 265.908 317.482 265.908C318.671 265.908 319.605 266.203 320.284 266.791C320.975 267.38 321.371 268.162 321.473 269.135H318.79C318.744 268.807 318.597 268.547 318.348 268.354C318.11 268.162 317.793 268.065 317.397 268.065C317.057 268.065 316.797 268.133 316.616 268.269C316.434 268.394 316.344 268.569 316.344 268.796C316.344 269.067 316.485 269.271 316.768 269.407C317.063 269.543 317.516 269.679 318.127 269.815C318.829 269.996 319.401 270.177 319.843 270.358C320.284 270.528 320.669 270.811 320.998 271.208C321.337 271.593 321.513 272.114 321.524 272.77C321.524 273.325 321.366 273.823 321.049 274.265C320.743 274.695 320.296 275.035 319.707 275.284C319.129 275.533 318.456 275.658 317.686 275.658ZM332.236 270.63C332.236 270.902 332.219 271.185 332.185 271.479H325.611C325.657 272.068 325.843 272.521 326.172 272.838C326.512 273.144 326.925 273.297 327.412 273.297C328.136 273.297 328.64 272.991 328.923 272.38H332.015C331.856 273.002 331.568 273.563 331.149 274.061C330.741 274.559 330.226 274.95 329.603 275.233C328.98 275.516 328.284 275.658 327.514 275.658C326.585 275.658 325.759 275.46 325.034 275.063C324.309 274.667 323.743 274.101 323.335 273.365C322.928 272.629 322.724 271.768 322.724 270.783C322.724 269.798 322.922 268.937 323.318 268.201C323.726 267.465 324.292 266.899 325.017 266.503C325.742 266.106 326.574 265.908 327.514 265.908C328.431 265.908 329.246 266.101 329.96 266.486C330.673 266.871 331.228 267.42 331.624 268.133C332.032 268.847 332.236 269.679 332.236 270.63ZM329.263 269.866C329.263 269.368 329.093 268.971 328.754 268.677C328.414 268.382 327.989 268.235 327.48 268.235C326.993 268.235 326.579 268.377 326.24 268.66C325.911 268.943 325.708 269.345 325.628 269.866H329.263ZM333.19 270.766C333.19 269.792 333.372 268.937 333.734 268.201C334.108 267.465 334.612 266.899 335.246 266.503C335.88 266.106 336.587 265.908 337.369 265.908C337.992 265.908 338.558 266.038 339.067 266.299C339.588 266.559 339.996 266.91 340.29 267.352V262.953H343.195V275.522H340.29V274.163C340.019 274.616 339.628 274.978 339.118 275.25C338.62 275.522 338.037 275.658 337.369 275.658C336.587 275.658 335.88 275.46 335.246 275.063C334.612 274.656 334.108 274.084 333.734 273.348C333.372 272.6 333.19 271.74 333.19 270.766ZM340.29 270.783C340.29 270.058 340.087 269.486 339.679 269.067C339.283 268.649 338.796 268.439 338.218 268.439C337.641 268.439 337.148 268.649 336.74 269.067C336.344 269.475 336.146 270.041 336.146 270.766C336.146 271.491 336.344 272.068 336.74 272.499C337.148 272.918 337.641 273.127 338.218 273.127C338.796 273.127 339.283 272.918 339.679 272.499C340.087 272.08 340.29 271.508 340.29 270.783ZM346.757 265.059C346.247 265.059 345.828 264.912 345.5 264.617C345.183 264.312 345.024 263.938 345.024 263.496C345.024 263.043 345.183 262.67 345.5 262.375C345.828 262.069 346.247 261.917 346.757 261.917C347.255 261.917 347.663 262.069 347.98 262.375C348.308 262.67 348.472 263.043 348.472 263.496C348.472 263.938 348.308 264.312 347.98 264.617C347.663 264.912 347.255 265.059 346.757 265.059ZM348.201 266.044V275.522H345.296V266.044H348.201ZM349.728 270.766C349.728 269.792 349.909 268.937 350.272 268.201C350.645 267.465 351.149 266.899 351.783 266.503C352.417 266.106 353.125 265.908 353.906 265.908C354.575 265.908 355.158 266.044 355.656 266.316C356.166 266.588 356.556 266.944 356.828 267.386V266.044H359.732V275.522H356.828V274.18C356.545 274.622 356.149 274.978 355.639 275.25C355.141 275.522 354.558 275.658 353.889 275.658C353.119 275.658 352.417 275.46 351.783 275.063C351.149 274.656 350.645 274.084 350.272 273.348C349.909 272.6 349.728 271.74 349.728 270.766ZM356.828 270.783C356.828 270.058 356.624 269.486 356.216 269.067C355.82 268.649 355.333 268.439 354.756 268.439C354.178 268.439 353.686 268.649 353.278 269.067C352.882 269.475 352.683 270.041 352.683 270.766C352.683 271.491 352.882 272.068 353.278 272.499C353.686 272.918 354.178 273.127 354.756 273.127C355.333 273.127 355.82 272.918 356.216 272.499C356.624 272.08 356.828 271.508 356.828 270.783Z" fill="#FF7E2F"/>
</svg>
