<svg width="64" height="64" viewBox="0 0 64 64" fill="none" xmlns="http://www.w3.org/2000/svg">
<path d="M45.3333 32C45.3331 32.472 45.2075 32.9355 44.9695 33.3431C44.7315 33.7507 44.3896 34.0878 43.9787 34.32L29.9733 42.2613C29.3642 42.6068 28.6751 42.7863 27.9748 42.7819C27.2745 42.7775 26.5877 42.5893 25.983 42.2362C25.3782 41.8831 24.8768 41.3774 24.5288 40.7697C24.1808 40.162 23.9985 39.4736 24 38.7733V25.2213C24.0004 24.522 24.1841 23.8349 24.5328 23.2287C24.8816 22.6225 25.3832 22.1183 25.9876 21.7665C26.592 21.4146 27.2781 21.2274 27.9775 21.2234C28.6768 21.2195 29.365 21.399 29.9733 21.744L43.9787 29.68C44.3896 29.9122 44.7315 30.2493 44.9695 30.6569C45.2075 31.0645 45.3331 31.528 45.3333 32ZM32 0C27.7977 -6.26191e-08 23.6365 0.827704 19.7541 2.43585C15.8717 4.04401 12.3441 6.40111 9.37258 9.37258C6.40111 12.3441 4.04401 15.8717 2.43586 19.7541C0.827705 23.6365 0 27.7977 0 32C0 36.2023 0.827705 40.3635 2.43586 44.2459C4.04401 48.1283 6.40111 51.6559 9.37258 54.6274C12.3441 57.5989 15.8717 59.956 19.7541 61.5641C23.6365 63.1723 27.7977 64 32 64C40.4869 64 48.6263 60.6286 54.6274 54.6274C60.6286 48.6263 64 40.4869 64 32C64 23.5131 60.6286 15.3737 54.6274 9.37258C48.6263 3.37142 40.4869 1.26465e-07 32 0ZM5.33333 32C5.33333 24.9276 8.14285 18.1448 13.1438 13.1438C18.1448 8.14285 24.9276 5.33333 32 5.33333C39.0724 5.33333 45.8552 8.14285 50.8562 13.1438C55.8572 18.1448 58.6667 24.9276 58.6667 32C58.6667 39.0724 55.8572 45.8552 50.8562 50.8562C45.8552 55.8572 39.0724 58.6667 32 58.6667C24.9276 58.6667 18.1448 55.8572 13.1438 50.8562C8.14285 45.8552 5.33333 39.0724 5.33333 32Z" fill="#FF7E2F"/>
</svg>
