<svg width="24" height="24" viewBox="0 0 24 24" fill="none" xmlns="http://www.w3.org/2000/svg">
<path d="M23.2243 8.15967L16.0296 7.10246L12.8133 0.509989C12.7255 0.329491 12.581 0.183374 12.4024 0.0945572C11.9547 -0.128917 11.4106 0.0573116 11.1868 0.509989L7.97055 7.10246L0.77582 8.15967C0.577461 8.18832 0.396105 8.28286 0.257255 8.42612C0.0893918 8.60056 -0.0031083 8.83525 7.97568e-05 9.07861C0.00326781 9.32197 0.101883 9.5541 0.274257 9.72398L5.47974 14.8553L4.24992 22.101C4.22108 22.2695 4.23953 22.4429 4.30317 22.6014C4.36681 22.7599 4.47311 22.8972 4.60999 22.9977C4.74688 23.0982 4.90889 23.1579 5.07764 23.1701C5.24639 23.1823 5.41514 23.1464 5.56475 23.0665L12.0001 19.6456L18.4354 23.0665C18.6111 23.1611 18.8151 23.1926 19.0106 23.1582C19.5037 23.0722 19.8352 22.5995 19.7502 22.101L18.5204 14.8553L23.7259 9.72398C23.8675 9.5836 23.9611 9.40023 23.9894 9.19968C24.0659 8.69829 23.7202 8.23416 23.2243 8.15967Z" fill="#FBC02D"/>
</svg>
